HIERARCHY
ROOT root
{
  OFFSET 0 98.6856 0
  CHANNELS 6 Xposition Yposition Zposition Zrotation Xrotation Yrotation
  JOINT torso_1
  {
    OFFSET 0 5.37224 -1.21793
    CHANNELS 6 Xposition Yposition Zposition Zrotation Xrotation Yrotation
    JOINT torso_2
    {
      OFFSET 0 5.94127 1.13336
      CHANNELS 6 Xposition Yposition Zposition Zrotation Xrotation Yrotation
      JOINT torso_3
      {
        OFFSET -1.08535e-17 6.33601 0.121658
        CHANNELS 6 Xposition Yposition Zposition Zrotation Xrotation Yrotation
        JOINT torso_4
        {
          OFFSET -1.16841e-17 6.88189 -0.46916
          CHANNELS 6 Xposition Yposition Zposition Zrotation Xrotation Yrotation
          JOINT torso_5
          {
            OFFSET -2.08699e-17 8.0451 -1.59297
            CHANNELS 6 Xposition Yposition Zposition Zrotation Xrotation Yrotation
            JOINT torso_6
            {
              OFFSET -2.67949e-17 10.0463 -0.967353
              CHANNELS 6 Xposition Yposition Zposition Zrotation Xrotation Yrotation
              JOINT torso_7
              {
                OFFSET -3.07187e-17 11.1612 1.66806
                CHANNELS 6 Xposition Yposition Zposition Zrotation Xrotation Yrotation
                JOINT neck_1
                {
                  OFFSET -1.36661e-17 5.06312 0.756688
                  CHANNELS 6 Xposition Yposition Zposition Zrotation Xrotation Yrotation
                  JOINT neck_2
                  {
                    OFFSET -1.91632e-17 5.09976 0.446172
                    CHANNELS 6 Xposition Yposition Zposition Zrotation Xrotation Yrotation
                    JOINT head
                    {
                      OFFSET -2.12574e-17 5.10962 0.809285
                      CHANNELS 6 Xposition Yposition Zposition Zrotation Xrotation Yrotation
                      End Site
                      {
                        OFFSET 0 0.1 0
                      }
                    }
                  }
                }
                JOINT l_shoulder
                {
                  OFFSET 1.30426 -8.04703 7.96922
                  CHANNELS 6 Xposition Yposition Zposition Zrotation Xrotation Yrotation
                  JOINT l_up_arm
                  {
                    OFFSET 13.7035 3.43734 -3.45766
                    CHANNELS 6 Xposition Yposition Zposition Zrotation Xrotation Yrotation
                    JOINT l_low_arm
                    {
                      OFFSET 30.8964 0.0632652 0.14496
                      CHANNELS 6 Xposition Yposition Zposition Zrotation Xrotation Yrotation
                      JOINT l_hand
                      {
                        OFFSET 25.6348 0.0524902 0.120274
                        CHANNELS 6 Xposition Yposition Zposition Zrotation Xrotation Yrotation
                        End Site
                        {
                          OFFSET 0.1 0 0
                        }
                      }
                    }
                  }
                }
                JOINT r_shoulder
                {
                  OFFSET -1.30426 -8.04702 7.96912
                  CHANNELS 6 Xposition Yposition Zposition Zrotation Xrotation Yrotation
                  JOINT r_up_arm
                  {
                    OFFSET -13.7035 3.43734 -3.45766
                    CHANNELS 6 Xposition Yposition Zposition Zrotation Xrotation Yrotation
                    JOINT r_low_arm
                    {
                      OFFSET -30.8964 0.0632652 0.14496
                      CHANNELS 6 Xposition Yposition Zposition Zrotation Xrotation Yrotation
                      JOINT r_hand
                      {
                        OFFSET -25.6348 0.0524901 0.120274
                        CHANNELS 6 Xposition Yposition Zposition Zrotation Xrotation Yrotation
                        End Site
                        {
                          OFFSET -0.1 0 0
                        }
                      }
                    }
                  }
                }
              }
            }
          }
        }
      }
    }
  }
  JOINT l_up_leg
  {
    OFFSET 9.77065 -4.44866 2.1502
    CHANNELS 6 Xposition Yposition Zposition Zrotation Xrotation Yrotation
    JOINT l_low_leg
    {
      OFFSET -0.901622 -41.0132 -0.693059
      CHANNELS 6 Xposition Yposition Zposition Zrotation Xrotation Yrotation
      JOINT l_foot
      {
        OFFSET -2.46068 -42.7371 -6.39839
        CHANNELS 6 Xposition Yposition Zposition Zrotation Xrotation Yrotation
        JOINT l_toes
        {
          OFFSET 0.82413 -10.4558 13.2182
          CHANNELS 6 Xposition Yposition Zposition Zrotation Xrotation Yrotation
          End Site
          {
            OFFSET 0 0 0.1
          }
        }
      }
    }
  }
  JOINT r_up_leg
  {
    OFFSET -9.77065 -4.44866 2.1502
    CHANNELS 6 Xposition Yposition Zposition Zrotation Xrotation Yrotation
    JOINT r_low_leg
    {
      OFFSET 0.901622 -41.0132 -0.693059
      CHANNELS 6 Xposition Yposition Zposition Zrotation Xrotation Yrotation
      JOINT r_foot
      {
        OFFSET 2.46068 -42.7371 -6.39839
        CHANNELS 6 Xposition Yposition Zposition Zrotation Xrotation Yrotation
        JOINT r_toes
        {
          OFFSET -0.82413 -10.4558 13.2182
          CHANNELS 6 Xposition Yposition Zposition Zrotation Xrotation Yrotation
          End Site
          {
            OFFSET 0 0 0.1
          }
        }
      }
    }
  }
}
MOTION
Frames: 5
Frame Time: 0.02
0 98.6856 0 -0 0 -0 0 5.37224 -1.21793 -0 0 -0 0 5.94127 1.13336 -0 0 -0 -1.08535e-17 6.33601 0.121658 -0 0 -0 -1.16841e-17 6.88189 -0.46916 -0 0 -0 -2.08699e-17 8.0451 -1.59297 -0 0 -0 -2.67949e-17 10.0463 -0.967353 -0 0 -0 -3.07187e-17 11.1612 1.66806 -0 0 -0 -1.36661e-17 5.06312 0.756688 -0 0 -0 -1.91632e-17 5.09976 0.446172 -0 0 -0 -2.12574e-17 5.10962 0.809285 -0 0 -0 1.30426 -8.04703 7.96922 -0 0 -0 13.7035 3.43734 -3.45766 -0 0 -0 30.8964 0.0632652 0.14496 -0 0 -0 25.6348 0.0524902 0.120274 -0 0 -0 -1.30426 -8.04702 7.96912 -0 0 -0 -13.7035 3.43734 -3.45766 -0 0 -0 -30.8964 0.0632652 0.14496 -0 0 -0 -25.6348 0.0524901 0.120274 -0 0 -0 9.77065 -4.44866 2.1502 -0 0 -0 -0.901622 -41.0132 -0.693059 -0 0 -0 -2.46068 -42.7371 -6.39839 -0 0 -0 0.82413 -10.4558 13.2182 -0 0 -0 -9.77065 -4.44866 2.1502 -0 0 -0 0.901622 -41.0132 -0.693059 -0 0 -0 2.46068 -42.7371 -6.39839 -0 0 -0 -0.82413 -10.4558 13.2182 -0 0 -0 
36.0662 97.5959 101.323 2.45578 -6.74402 -14.8212 0 5.37224 -1.21793 -2.67105 1.8667 -0.226911 0 5.94127 1.13336 -2.03988 1.77846 -0.518419 -1.08535e-17 6.33601 0.121658 -1.31211 2.04173 -0.499905 -1.16841e-17 6.88189 -0.46916 -0.550959 2.36677 -0.458684 -2.08699e-17 8.0451 -1.59297 0.132008 2.17447 -0.450571 -2.67949e-17 10.0463 -0.967353 0.695914 2.34926 -0.784035 -3.07187e-17 11.1612 1.66806 -0.00452691 0.109273 -0.0183193 -1.36661e-17 5.06312 0.756688 1.02217 4.98944 -26.1105 -1.91632e-17 5.09976 0.446172 5.64539 -0.774841 -12.1185 -2.12574e-17 5.10962 0.809285 4.39467 1.7764 -4.15388 1.30426 -8.04703 7.96922 -3.6907 2.49543 -5.22833 13.7035 3.43734 -3.45766 -81.9958 6.86415 -6.19028 30.8964 0.0632652 0.14496 0.828062 -0.0244337 -3.99441 25.6348 0.0524902 0.120274 0.556578 -10.1673 -3.10642 -1.30426 -8.04702 7.96912 4.95019 4.30663 3.26338 -13.7035 3.43734 -3.45766 78.3316 14.1923 10.7536 -30.8964 0.0632652 0.14496 -0.696162 -0.0168304 3.35692 -25.6348 0.0524901 0.120274 -0.257545 -5.42533 0.889719 9.77065 -4.44866 2.1502 -5.38515 7.45036 -4.77408 -0.901622 -41.0132 -0.693059 -0.0213049 0.0795025 -0.00137294 -2.46068 -42.7371 -6.39839 5.68163 0.657835 14.3489 0.82413 -10.4558 13.2182 4.47266e-16 -7.82715e-16 3.05504e-33 -9.77065 -4.44866 2.1502 -4.15428 0.739895 26.0734 0.901622 -41.0132 -0.693059 1.02086 3.81235 0.0325884 2.46068 -42.7371 -6.39839 -4.01228 -4.38738 -15.0516 -0.82413 -10.4558 13.2182 -5.96354e-16 -5.59082e-16 -1.27471e-14 
36.0396 97.5978 101.343 2.47848 -6.73827 -14.7719 0 5.37224 -1.21793 -2.68924 1.8883 -0.236303 0 5.94127 1.13336 -2.0543 1.79204 -0.531433 -1.08535e-17 6.33601 0.121658 -1.32233 2.04497 -0.51324 -1.16841e-17 6.88189 -0.46916 -0.556503 2.35344 -0.472346 -2.08699e-17 8.0451 -1.59297 0.127783 2.15134 -0.463373 -2.67949e-17 10.0463 -0.967353 0.6917 2.32174 -0.796337 -3.07187e-17 11.1612 1.66806 -0.00451845 0.109254 -0.0184232 -1.36661e-17 5.06312 0.756688 1.00622 4.96081 -26.0429 -1.91632e-17 5.09976 0.446172 5.63681 -0.739451 -12.0824 -2.12574e-17 5.10962 0.809285 4.36998 1.80932 -4.12787 1.30426 -8.04703 7.96922 -3.6214 2.4874 -5.22027 13.7035 3.43734 -3.45766 -82.1256 6.67011 -6.15598 30.8964 0.0632652 0.14496 0.82174 -0.0240268 -3.96387 25.6348 0.0524902 0.120274 0.558217 -10.0543 -3.1701 -1.30426 -8.04702 7.96912 4.99361 4.3257 3.2788 -13.7035 3.43734 -3.45766 78.3597 14.0704 10.7102 -30.8964 0.0632652 0.14496 -0.692917 -0.0166574 3.34126 -25.6348 0.0524901 0.120274 -0.284594 -5.07691 0.88398 9.77065 -4.44866 2.1502 -5.38217 7.45001 -4.86353 -0.901622 -41.0132 -0.693059 -0.0230612 0.0860571 -0.00148481 -2.46068 -42.7371 -6.39839 5.67113 0.66677 14.3487 0.82413 -10.4558 13.2182 4.47266e-16 -7.82715e-16 3.05504e-33 -9.77065 -4.44866 2.1502 -4.16691 0.750788 26.03 0.901622 -41.0132 -0.693059 1.0227 3.81921 0.0325858 2.46068 -42.7371 -6.39839 -4.00993 -4.41174 -15.0536 -0.82413 -10.4558 13.2182 -5.96354e-16 -5.59082e-16 -1.27471e-14 
36.015 97.5999 101.358 2.50324 -6.73128 -14.71 0 5.37224 -1.21793 -2.70592 1.90309 -0.24982 0 5.94127 1.13336 -2.06683 1.80116 -0.548038 -1.08535e-17 6.33601 0.121658 -1.33094 2.04577 -0.530026 -1.16841e-17 6.88189 -0.46916 -0.56058 2.34083 -0.489476 -2.08699e-17 8.0451 -1.59297 0.124051 2.13112 -0.479803 -2.67949e-17 10.0463 -0.967353 0.686745 2.2981 -0.812009 -3.07187e-17 11.1612 1.66806 -0.00448877 0.109219 -0.0184677 -1.36661e-17 5.06312 0.756688 0.988768 4.92785 -25.9713 -1.91632e-17 5.09976 0.446172 5.62516 -0.689745 -12.045 -2.12574e-17 5.10962 0.809285 4.32731 1.8601 -4.10543 1.30426 -8.04703 7.96922 -3.56422 2.48162 -5.2138 13.7035 3.43734 -3.45766 -82.2412 6.5387 -6.13548 30.8964 0.0632652 0.14496 0.820584 -0.0239528 -3.95828 25.6348 0.0524902 0.120274 0.566333 -9.99903 -3.22417 -1.30426 -8.04702 7.96912 5.0487 4.3474 3.29615 -13.7035 3.43734 -3.45766 78.3617 13.9469 10.6494 -30.8964 0.0632652 0.14496 -0.690609 -0.0165348 3.33012 -25.6348 0.0524901 0.120274 -0.296326 -4.82717 0.900622 9.77065 -4.44866 2.1502 -5.3788 7.43545 -4.97413 -0.901622 -41.0132 -0.693059 -0.0292601 0.109191 -0.00187804 -2.46068 -42.7371 -6.39839 5.66955 0.676693 14.3472 0.82413 -10.4558 13.2182 4.47266e-16 -7.82715e-16 3.05504e-33 -9.77065 -4.44866 2.1502 -4.17889 0.759225 25.961 0.901622 -41.0132 -0.693059 1.02449 3.8259 0.0325831 2.46068 -42.7371 -6.39839 -4.02215 -4.42859 -15.0549 -0.82413 -10.4558 13.2182 -5.96354e-16 -5.59082e-16 -1.27471e-14 
35.99 97.6045 101.372 2.5173 -6.74069 -14.6464 0 5.37224 -1.21793 -2.71776 1.92257 -0.263284 0 5.94127 1.13336 -2.07612 1.81432 -0.563814 -1.08535e-17 6.33601 0.121658 -1.33796 2.05019 -0.545964 -1.16841e-17 6.88189 -0.46916 -0.564772 2.33119 -0.505743 -2.08699e-17 8.0451 -1.59297 0.118537 2.11318 -0.495345 -2.67949e-17 10.0463 -0.967353 0.678807 2.2765 -0.825739 -3.07187e-17 11.1612 1.66806 -0.00450748 0.109247 -0.0184882 -1.36661e-17 5.06312 0.756688 0.963648 4.89335 -25.8838 -1.91632e-17 5.09976 0.446172 5.59321 -0.647108 -12.0018 -2.12574e-17 5.10962 0.809285 4.2819 1.92551 -4.12767 1.30426 -8.04703 7.96922 -3.5175 2.47898 -5.21492 13.7035 3.43734 -3.45766 -82.3274 6.44317 -6.15216 30.8964 0.0632652 0.14496 0.821287 -0.0239979 -3.96168 25.6348 0.0524902 0.120274 0.569004 -9.96362 -3.26466 -1.30426 -8.04702 7.96912 5.11256 4.37289 3.31964 -13.7035 3.43734 -3.45766 78.3403 13.869 10.5885 -30.8964 0.0632652 0.14496 -0.690098 -0.0165076 3.32765 -25.6348 0.0524901 0.120274 -0.280303 -4.75551 0.933189 9.77065 -4.44866 2.1502 -5.36751 7.42734 -5.07324 -0.901622 -41.0132 -0.693059 -0.0405706 0.151402 -0.00258912 -2.46068 -42.7371 -6.39839 5.66067 0.687244 14.347 0.82413 -10.4558 13.2182 4.96962e-17 -7.95139e-16 1.2424e-17 -9.77065 -4.44866 2.1502 -4.18411 0.782947 25.8874 0.901622 -41.0132 -0.693059 1.02672 3.83423 0.0325793 2.46068 -42.7371 -6.39839 -4.02683 -4.43063 -15.0544 -0.82413 -10.4558 13.2182 -5.96354e-16 -5.59082e-16 -1.27471e-14 
